<?xml version="1.0" standalone="no"?>
<!DOCTYPE svg PUBLIC "-//W3C//DTD SVG 20010904//EN"
 "http://www.w3.org/TR/2001/REC-SVG-20010904/DTD/svg10.dtd">
<svg version="1.0" xmlns="http://www.w3.org/2000/svg"
 width="512.000000pt" height="512.000000pt" viewBox="0 0 512.000000 512.000000"
 preserveAspectRatio="xMidYMid meet">

<g transform="translate(0.000000,512.000000) scale(0.100000,-0.100000)"
fill="#000000" stroke="none">
<path d="M3450 5111 c-56 -17 -91 -46 -228 -184 -102 -102 -143 -150 -140
-163 8 -46 40 -26 182 114 77 77 155 147 173 156 39 20 103 21 146 2 18 -8
139 -122 270 -253 l238 -239 -31 -65 c-25 -54 -30 -76 -30 -140 0 -130 66
-231 188 -286 46 -22 65 -25 136 -22 66 3 92 9 136 32 l54 28 160 -160 161
-161 -1355 0 -1355 0 205 205 c113 113 209 205 214 205 5 0 35 -25 67 -55 57
-55 80 -62 94 -27 4 10 -12 34 -50 72 -30 30 -55 60 -55 65 0 5 70 80 156 166
157 158 171 179 128 196 -12 4 -127 -106 -433 -411 l-416 -416 -542 0 c-298 0
-548 -3 -557 -6 -21 -8 -21 -50 0 -58 9 -3 631 -6 1384 -6 l1369 0 3 -36 c6
-71 68 -68 68 2 l0 34 559 0 c372 0 569 -4 588 -11 40 -15 73 -48 94 -94 17
-36 19 -71 19 -381 l0 -342 -37 -7 c-90 -17 -168 -79 -213 -167 -26 -52 -30
-72 -30 -138 0 -66 4 -86 30 -138 45 -88 123 -150 213 -167 l37 -7 0 -342 c0
-310 -2 -345 -19 -381 -21 -46 -54 -79 -94 -94 -19 -7 -216 -11 -587 -11
l-559 0 -3 41 c-6 81 -68 73 -68 -8 l0 -33 -1755 0 c-1728 0 -1756 0 -1794 20
-48 24 -78 60 -91 110 -6 23 -9 166 -8 366 l3 328 45 11 c95 25 168 83 211
171 20 40 24 64 24 134 0 70 -4 94 -24 134 -43 88 -116 146 -211 171 l-45 11
-3 328 c-1 200 2 343 8 366 13 50 43 86 91 110 35 18 59 20 283 20 134 0 251
3 260 6 9 3 16 14 16 24 0 39 -19 42 -287 38 -292 -3 -306 -7 -376 -88 -56
-66 -58 -86 -55 -495 l3 -370 53 -7 c135 -20 224 -118 224 -248 0 -130 -89
-228 -224 -248 l-53 -7 -5 -365 c-5 -290 -3 -375 8 -414 12 -44 36 -71 279
-310 146 -143 272 -262 279 -264 8 -2 31 9 51 24 74 57 173 70 253 33 152 -69
197 -251 95 -385 -14 -18 -25 -39 -25 -46 0 -19 519 -533 560 -554 47 -25 153
-25 200 0 19 10 330 312 690 672 l655 654 940 2 940 3 41 22 c53 29 110 93
124 140 7 26 10 160 8 413 l-3 375 -48 7 c-132 18 -227 123 -227 248 0 128
118 250 241 250 15 0 30 3 32 8 3 4 6 178 8 387 3 350 2 383 -15 415 -24 47
-526 550 -549 550 -9 0 -35 -13 -57 -29 -165 -119 -394 -4 -395 199 0 66 11
94 70 183 l18 29 -269 268 c-252 251 -272 269 -323 284 -58 17 -100 19 -141 7z
m-1110 -4386 c-344 -344 -639 -632 -657 -640 -39 -19 -104 -19 -146 -1 -18 8
-139 122 -270 253 l-238 239 33 64 c29 56 33 72 33 144 -1 73 -4 88 -34 144
-60 112 -154 167 -282 167 -67 0 -85 -5 -140 -33 l-63 -33 -161 161 -160 160
1355 0 1355 0 -625 -625z"/>
<path d="M810 5068 c-5 -13 -11 -35 -15 -51 -10 -47 -71 -104 -137 -128 -48
-18 -58 -26 -56 -42 3 -22 19 -33 63 -42 40 -9 99 -73 120 -132 24 -69 30 -78
50 -78 20 0 31 16 40 58 8 41 76 110 146 146 48 26 60 37 57 54 -2 15 -13 23
-36 28 -63 13 -108 53 -148 134 -39 80 -66 96 -84 53z m117 -247 c-12 -8 -38
-31 -58 -52 l-36 -37 -16 27 c-8 14 -29 39 -46 55 l-30 29 52 51 52 52 52 -55
c52 -55 52 -55 30 -70z"/>
<path d="M1300 4851 c-5 -11 -10 -28 -10 -38 0 -38 -49 -120 -95 -161 -43 -37
-135 -82 -170 -82 -15 0 -30 -34 -21 -49 3 -5 22 -12 43 -16 116 -21 192 -110
247 -288 14 -43 66 -26 66 22 1 78 83 171 212 241 115 63 115 79 -1 110 -63
17 -134 87 -175 174 -19 39 -37 79 -40 89 -7 23 -43 22 -56 -2z m83 -197 c24
-33 65 -74 90 -91 l46 -30 -60 -42 c-32 -23 -77 -64 -98 -91 l-39 -49 -36 59
c-34 54 -72 95 -114 120 -16 9 -15 11 3 25 11 8 37 27 58 42 21 15 53 49 70
75 16 27 31 47 33 45 1 -1 22 -29 47 -63z"/>
<path d="M810 4468 c-5 -13 -11 -35 -15 -51 -8 -40 -67 -101 -117 -121 -68
-28 -73 -32 -76 -54 -3 -16 3 -23 25 -27 79 -17 130 -65 161 -151 23 -64 30
-74 52 -74 14 0 22 13 34 53 18 62 65 111 146 155 75 39 80 67 14 83 -71 18
-123 76 -163 182 -13 34 -48 36 -61 5z m117 -247 c-12 -8 -39 -32 -59 -53
l-37 -38 -15 27 c-8 16 -28 41 -44 57 l-30 28 51 52 52 52 52 -55 c52 -55 52
-55 30 -70z"/>
<path d="M2807 4003 c-18 -17 -1 -44 67 -112 49 -49 80 -72 92 -69 40 7 27 40
-47 114 -68 68 -95 85 -112 67z"/>
<path d="M2426 3514 c-12 -31 -7 -369 6 -382 14 -14 364 -17 386 -4 9 7 12 54
10 203 l-3 194 -196 3 c-173 2 -197 0 -203 -14z m344 -184 l0 -140 -140 0
-140 0 0 140 0 140 140 0 140 0 0 -140z"/>
<path d="M2987 3524 c-13 -13 -8 -379 5 -392 18 -18 372 -17 387 2 8 9 11 72
9 202 l-3 189 -196 3 c-107 1 -198 -1 -202 -4z m333 -194 l0 -140 -135 0 -135
0 0 140 0 140 135 0 135 0 0 -140z"/>
<path d="M3731 3496 c-8 -9 -11 -47 -9 -106 2 -74 6 -95 20 -103 12 -8 21 -7
32 2 20 17 23 190 4 209 -16 16 -33 15 -47 -2z"/>
<path d="M1270 3420 c-27 -27 -26 -43 19 -390 21 -162 38 -296 37 -296 -2 -3
-432 -24 -487 -24 l-56 0 -93 105 -94 105 -73 0 c-66 0 -74 -2 -88 -24 -15
-22 -15 -27 1 -58 9 -18 34 -58 54 -88 62 -92 62 -94 45 -148 -14 -43 -15 -53
-1 -92 17 -49 16 -51 -44 -140 -20 -30 -45 -70 -54 -88 -16 -31 -16 -36 -1
-58 14 -22 22 -24 88 -24 l73 0 95 106 94 107 110 -6 c60 -4 178 -9 260 -13
83 -3 155 -7 161 -9 7 -2 -1 -96 -27 -297 -21 -161 -38 -310 -39 -330 0 -46
28 -78 69 -78 34 0 55 22 90 97 23 50 24 51 74 56 91 8 129 89 68 146 -41 38
-27 61 38 61 49 0 79 20 94 63 9 24 -9 68 -36 89 l-22 17 40 81 40 82 50 -6
c27 -3 124 -8 215 -11 161 -7 166 -6 210 17 25 14 59 44 75 67 27 39 30 50 30
121 0 71 -3 82 -30 121 -16 23 -50 53 -75 67 -43 23 -50 24 -190 18 -80 -4
-176 -9 -215 -12 l-70 -6 -42 86 c-41 82 -41 85 -22 91 25 8 51 66 42 92 -15
43 -45 63 -94 63 -65 0 -79 23 -38 61 39 37 39 80 0 120 -24 23 -38 29 -74 29
-43 0 -44 1 -68 52 -13 28 -32 62 -42 75 -23 29 -70 30 -97 3z m204 -359 l155
-309 -115 -7 c-63 -4 -117 -5 -118 -4 -2 2 -20 137 -40 299 -21 162 -40 303
-42 313 -16 53 22 -14 160 -292z m34 140 c3 -8 -1 -12 -9 -9 -7 2 -15 10 -17
17 -3 8 1 12 9 9 7 -2 15 -10 17 -17z m102 -200 c0 -17 -18 -21 -24 -6 -3 9 0
15 9 15 8 0 15 -4 15 -9z m-981 -218 l70 -78 -47 -6 c-26 -3 -47 -6 -48 -5 -1
4 -37 60 -68 109 l-37 57 30 0 c24 0 42 -14 100 -77z m1521 -101 c67 -33 90
-139 46 -207 -40 -60 -16 -60 -824 -21 -689 34 -738 37 -756 56 -46 45 -9 120
59 120 39 0 1209 58 1275 63 117 9 166 7 200 -11z m-1482 -270 c21 -7 18 -12
-45 -81 -57 -61 -72 -72 -94 -70 l-27 4 50 78 c52 80 60 85 116 69z m919 -42
l43 0 -156 -311 c-85 -171 -156 -310 -158 -308 -2 2 15 145 38 318 l40 314 75
-7 c41 -3 94 -6 118 -6z m23 -251 c0 -5 -7 -9 -15 -9 -9 0 -12 6 -9 15 6 15
24 11 24 -6z m-100 -198 c0 -12 -20 -25 -27 -18 -7 7 6 27 18 27 5 0 9 -4 9
-9z"/>
<path d="M3732 3168 c-14 -14 -17 -185 -3 -206 4 -8 19 -12 32 -10 23 3 24 6
27 102 3 97 -5 126 -32 126 -7 0 -17 -5 -24 -12z"/>
<path d="M3736 2834 c-12 -12 -16 -37 -16 -102 0 -98 7 -115 41 -110 23 3 24
6 27 105 2 93 1 103 -17 112 -15 8 -23 7 -35 -5z"/>
<path d="M4155 2638 c-3 -13 -4 -257 -3 -542 3 -471 5 -520 20 -529 12 -8 21
-7 32 2 14 12 16 72 16 540 0 397 -3 530 -12 539 -19 19 -47 14 -53 -10z"/>
<path d="M4391 2641 c-7 -13 -11 -188 -11 -533 0 -544 1 -555 46 -546 18 3 19
17 19 548 l0 545 -22 3 c-14 2 -26 -4 -32 -17z"/>
<path d="M3726 2495 c-3 -9 -6 -54 -6 -99 0 -94 15 -129 47 -110 15 10 18 26
18 115 l0 104 -26 3 c-17 2 -29 -3 -33 -13z"/>
<path d="M3732 2168 c-19 -19 -16 -192 4 -209 11 -9 20 -10 32 -2 13 8 18 29
20 94 2 46 0 94 -3 107 -6 24 -34 29 -53 10z"/>
<path d="M2364 2125 c-4 -8 -4 -22 0 -30 5 -13 75 -15 545 -15 470 0 540 2
545 15 3 8 3 22 0 30 -5 13 -75 15 -545 15 -470 0 -540 -2 -545 -15z"/>
<path d="M2367 1903 c-16 -15 -6 -51 16 -57 12 -3 252 -6 533 -6 429 0 513 2
530 14 15 12 17 18 8 33 -11 17 -42 18 -546 21 -294 1 -538 -1 -541 -5z"/>
<path d="M3732 1838 c-16 -16 -16 -190 0 -206 17 -17 45 -15 52 4 3 9 6 55 6
103 0 84 -8 111 -35 111 -6 0 -16 -5 -23 -12z"/>
<path d="M2372 1671 c-8 -4 -12 -19 -10 -32 l3 -24 539 0 c492 0 540 1 549 17
8 12 7 21 -2 32 -12 14 -72 16 -540 16 -289 0 -532 -4 -539 -9z"/>
</g>
</svg>
